<svg xmlns="http://www.w3.org/2000/svg" width="396.5" height="91.3" viewBox="0 0 104.9 24.2"><defs/><g fill="#fff" stroke-width=".3" aria-label="FarmStall API" font-family="Lato" font-size="16.9" font-weight="700" letter-spacing="0" style="line-height:1.25;-inkscape-font-specification:Lato" word-spacing="0"><path d="M9 1.7v1.8H3.6V7h4.6v1.8H3.6v5H1.3V1.7zM17.5 13.9h-1.4l-.3-.4-.1-.7-.7.6-.6.3-.8.3h-.8l-1-.1-.8-.5q-.4-.2-.5-.7-.2-.4-.2-1l.2-1q.3-.5.9-.8.6-.4 1.6-.7l2.5-.3v-.5q0-.9-.4-1.3t-1-.4l-1 .1-.5.3-.5.3h-.8q-.2-.1-.2-.3l-.4-.7q1.5-1.3 3.6-1.3.7 0 1.3.2l1 .7q.5.4.7 1l.2 1.4zm-4-1.3h.5l.5-.2.5-.3.5-.4v-1.5q-1 0-1.6.2-.6 0-1 .2l-.5.5-.1.5q0 .5.3.8.3.2.8.2zM19.6 13.9V5.2h1.2l.4.1.2.4.1 1q.5-.7 1.1-1.2.7-.4 1.4-.4t1.1.3l-.3 1.5v.2l-.3.1H24l-.5-.1q-.7 0-1.2.3l-.7 1V14zM26.5 13.9V5.2h1.3q.4 0 .5.4l.1.6.5-.4.5-.4.6-.2.8-.1q.8 0 1.3.4.5.5.8 1.2l.5-.7.7-.5.7-.3.9-.1q.7 0 1.3.2.5.2.9.6l.6 1q.2.7.2 1.5v5.5h-2.1V8.4q0-.9-.4-1.3-.3-.4-1-.4l-.7.1-.4.3-.4.6v6.2h-2.2V8.4q0-.9-.3-1.3-.4-.4-1-.4l-1 .2-.6.6V14zM47.4 3.9q0 .2-.2.3h-.3l-.4-.1-.5-.3-.7-.3-.9-.1-.8.1-.6.3-.3.5-.2.6q0 .5.3.7.2.3.6.5l1 .4 1 .3 1 .5 1 .6q.3.3.5.9.3.5.3 1.3t-.3 1.5q-.3.7-.8 1.3-.6.5-1.4.8-.7.3-1.8.3h-1.1l-1.1-.4-1-.5-.8-.7.7-1q0-.2.2-.3h.3l.4.1.6.4.8.4q.5.2 1.1.2 1 0 1.5-.5.5-.4.5-1.3 0-.5-.2-.8-.2-.3-.6-.5l-1-.4-1-.3-1-.4-1-.6-.6-1q-.2-.5-.2-1.4 0-.6.3-1.3.2-.6.7-1 .6-.6 1.3-.9.8-.3 1.7-.3 1 0 2 .4 1 .3 1.6 1zM52.7 14q-1.2 0-1.8-.6-.6-.6-.6-1.8V6.8h-.9l-.2-.1q-.2-.1-.2-.4v-.8l1.4-.2.5-2.4.1-.2.3-.1h1.1v2.7h2.3v1.5h-2.3v4.7q0 .4.2.6.2.3.6.3h.3l.2-.2h.2l.1-.1h.2l.1.2.7 1q-.5.4-1.1.5l-1.2.2zM63.2 13.9h-1.4l-.3-.4-.2-.7-.6.6-.7.3-.7.3h-.8l-1-.1-.9-.5q-.3-.2-.5-.7-.2-.4-.2-1 0-.5.3-1t.9-.8q.6-.4 1.6-.7L61 9v-.5q0-.9-.3-1.3-.4-.4-1.1-.4l-.8.1-.6.3-.5.3H57l-.3-.3-.4-.7q1.5-1.3 3.7-1.3.7 0 1.3.2l1 .7.7 1 .2 1.4zm-4-1.3h.5l.5-.2.5-.3.4-.4v-1.5q-.9 0-1.5.2-.6 0-1 .2t-.5.5q-.2.2-.2.5 0 .5.4.8.3.2.8.2zM67.5 1.3V14h-2.1V1.3zM72 1.3V14h-2V1.3zM88.6 13.9h-1.8l-.5-.1-.2-.4-1-2.5h-5l-1 2.5q0 .2-.2.3-.2.2-.5.2h-1.8l4.8-12.2h2.4zm-8-4.6h4l-1.5-4-.3-.7-.2-.8-.2.8-.3.6zM92.2 9.6v4.3H90V1.7h4q1.3 0 2.1.2 1 .3 1.5.9.6.5.9 1.2.3.7.3 1.6 0 .9-.3 1.6-.3.7-1 1.3-.5.5-1.4.8-.9.3-2 .3zm0-1.8H94l1.1-.1.8-.5q.3-.3.4-.7.2-.4.2-1l-.2-.8q-.1-.4-.4-.7-.3-.3-.8-.4l-1-.2h-1.8zM103 13.9h-2.3V1.7h2.3z" style="-inkscape-font-specification:'Lato Bold'"/></g><g fill="#ccc" stroke-width=".2" aria-label="v1" font-family="Lato" font-size="9.1" font-weight="700" letter-spacing="0" style="line-height:1.25;-inkscape-font-specification:Lato" word-spacing="0"><path d="M96.8 22.8h-1l-1.9-4.6h1.2l.1.2.9 2.5.1.4.1.4.1-.4.1-.4 1-2.5v-.2h1.2zM100 22h1.3v-3.8-.5l-1 .8h-.2-.2l-.4-.5 2-1.8h1V22h1v.8H100z" style="-inkscape-font-specification:'Lato Bold'"/></g></svg>