<svg xmlns="http://www.w3.org/2000/svg" xmlns:xlink="http://www.w3.org/1999/xlink" width="702.8" height="567.9" viewBox="0 0 185.9 150.2"><defs/><defs><linearGradient id="a"><stop offset="0" stop-color="#f4bc5b"/><stop offset=".5" stop-color="#d16928"/><stop offset="1" stop-color="#e13196"/></linearGradient><linearGradient id="b" x1="-116.5" x2="-116.5" y1="-65.2" y2="39.1" gradientTransform="matrix(.99363 0 0 .29375 -510 468.6)" gradientUnits="userSpaceOnUse" xlink:href="#a"/></defs><g transform="translate(934 -515) scale(1.34582)"><path fill="#fff" stroke="#3f3d56" stroke-miterlimit="10" stroke-width=".2" d="M-630.6 417.1h58.7v34.8h-58.7z"/><path fill="#fff" stroke="#3f3d56" stroke-miterlimit="10" stroke-width=".16124" d="M-619.7 452.1V480h-58.7V445h47.8"/><path fill="none" stroke="#3f3d56" stroke-miterlimit="10" stroke-width=".2" d="M-630.6 419.8h58.6"/><path fill="url(#b)" d="M-679.2 448.5h58.7v32.2h-58.7z"/><ellipse cx="-584.5" cy="486.9" fill="#dd3e7c" rx="24.3" ry="5.5"/><ellipse cx="-582.2" cy="485.3" fill="none" stroke="#3f3d56" stroke-miterlimit="10" stroke-width=".2" rx="24.3" ry="5.5"/><circle cx="-621.6" cy="432.1" r="4.8" fill="#e59946"/><circle cx="-602.1" cy="432.1" r="4.8" fill="#e59946"/><circle cx="-582.6" cy="432.1" r="4.8" fill="#6c63ff"/><circle cx="-676.4" cy="446.7" r=".5" fill="#f86b75"/><circle cx="-675" cy="446.7" r=".5" fill="#fad375"/><circle cx="-673.5" cy="446.7" r=".5" fill="#8bcc55"/><path fill="none" stroke="#3f3d56" stroke-miterlimit="10" stroke-width=".2" d="M-678.4 447.7h47.8"/><circle cx="-676.3" cy="446.3" r=".5" fill="none" stroke="#3f3d56" stroke-miterlimit="10" stroke-width=".2"/><circle cx="-674.8" cy="446.3" r=".5" fill="none" stroke="#3f3d56" stroke-miterlimit="10" stroke-width=".2"/><circle cx="-673.4" cy="446.3" r=".5" fill="none" stroke="#3f3d56" stroke-miterlimit="10" stroke-width=".2"/><path fill="none" stroke="#3f3d56" stroke-miterlimit="10" stroke-width=".2" d="M-665.6 452.1h33.2v10.3h-33.2z"/><circle cx="-628.7" cy="418.8" r=".5" fill="#f86b75"/><circle cx="-627.3" cy="418.8" r=".5" fill="#fad375"/><circle cx="-625.8" cy="418.8" r=".5" fill="#8bcc55"/><path fill="#e59946" d="M-592.8 414.4h-.8c-1 .3-.8 2-.8 2.6v.5l-1.4 2.8 2 .8.7-1.8.5-1.3c.4-.1 1-.6 1.2-.7.4-.2.5-2.1.1-2.4-.2-.2-.8-.5-1.5-.5z"/><path style="line-height:1.25;-inkscape-font-specification:'Lato Bold'" fill="#b3b3b3" d="M-603.5 415.4H-605l-.2-.3-.6-1.6h-3.1l-.6 1.6-.2.2-.3.1h-1l3-7.6h1.4zm-5-2.9h2.5l-1-2.5-.1-.4-.1-.5-.2.5-.1.4zM-601.2 412.7v2.7h-1.5v-7.6h2.5l1.4.1q.5.2.9.6.4.3.5.7l.2 1q0 .6-.2 1l-.5.8q-.4.4-1 .5-.5.2-1.3.2zm0-1h1q.4 0 .7-.2.3 0 .5-.3.2-.1.3-.4v-.6-.5l-.3-.5-.5-.2-.7-.1h-1zM-594.5 415.4h-1.4v-7.6h1.4z" font-family="Lato" font-size="10.6" font-weight="700" letter-spacing="0" word-spacing="0"/><path style="line-height:1.25;-inkscape-font-specification:'Lato Bold'" fill="#fff" d="M-589.4 412l-.1.2h-.2-.1l-.3-.2-.3-.2h-1q-.3.1-.3.4v.3l.3.2.4.3q.3 0 .5.2l.5.2.3.4q.2.1.3.4v.6l-.2.7-.5.5-.7.3h-1l-.5-.2-.5-.2-.4-.2-.3-.3.3-.5.2-.1h.4l.2.2.4.2.4.2h.4l.3-.1.2-.2v-.3-.3l-.3-.2q-.1-.2-.4-.3l-.4-.2q-.3 0-.5-.2l-.4-.4-.2-.4v-.7l.2-.6q.1-.3.4-.4l.7-.3h.9q.5 0 1 .3.4.2.7.6z" font-family="Lato" font-size="10.6" font-weight="700" letter-spacing="0" word-spacing="0"/><circle cx="-628.5" cy="418.4" r=".5" fill="none" stroke="#3f3d56" stroke-miterlimit="10" stroke-width=".2"/><circle cx="-627.1" cy="418.4" r=".5" fill="none" stroke="#3f3d56" stroke-miterlimit="10" stroke-width=".2"/><circle cx="-625.6" cy="418.4" r=".5" fill="none" stroke="#3f3d56" stroke-miterlimit="10" stroke-width=".2"/><circle cx="-601.3" cy="431.3" r="4.8" fill="none" stroke="#3f3d56" stroke-miterlimit="10" stroke-width=".2"/><circle cx="-581.8" cy="431.3" r="4.8" fill="none" stroke="#3f3d56" stroke-miterlimit="10" stroke-width=".2"/><path fill="#f2f2f2" d="M-628.1 440.3h13.2v1.3h-13.2zM-608.5 440.3h13.2v1.3h-13.2zM-588.8 440.3h13.2v1.3h-13.2z"/><path fill="none" stroke="#3f3d56" stroke-miterlimit="10" stroke-width=".2" d="M-627.5 439.8h13.2v1.3h-13.2zM-607.8 439.8h13.2v1.3h-13.2zM-588.2 439.8h13.2v1.3h-13.2z"/><path fill="#f2f2f2" d="M-676.2 468.5h10.2v8.7h-10.2zM-657.4 468.6h10.2v8.7h-10.2zM-638.6 468.7h10.2v8.7h-10.2z"/><path fill="none" stroke="#3f3d56" stroke-miterlimit="10" stroke-width=".2" d="M-674.7 466.9h10.2v8.7h-10.2zM-656 467h10.2v8.7H-656zM-637.2 467h10.2v8.7h-10.2z"/><path fill="#e59946" d="M-571.8 447.9s-2.7 5.3-3.5 5.5c-.8.1-.8-4.9-.8-4.9s1.6-1.4 2.2-1.3l2.1.7z"/><path fill="#251f1e" d="M-575.8 481.4s1.4.8.8 2.6c-.7 1.8-1 1.3-1.3 2.7-.3 1.5-3.2 1.3-3.4.7-.1-.7-.5-3.2.3-4.2s3.6-1.8 3.6-1.8zM-590.2 481.4s-1.4.8-.8 2.6c.7 1.8 1 1.3 1.3 2.7.3 1.5 3.2 1.3 3.4.7.2-.7.5-3.2-.3-4.2s-3.6-1.8-3.6-1.8z"/><path fill="#1c4187" d="M-576.6 449.2s1.3.8 1.6 5.8c.3 5-.2 10.6-.3 12-.2 1.2.1 3.1.5 4.1.3 1-.9 8.4-.9 8.4a3.8 3.8 0 010 3.2c-.8 1.8-3.2 3.6-3.8 1.8a4.4 4.4 0 00-.5-1.8c-.5-1 .3-4.8.3-4.8s-.6-6.2-.5-7.8c.2-1.6-1.9-11-2.2-12.7-.3-1.6-.2-3-.3-2.4l-3.1 13.8s.3 8.6.2 9.7c-.2 1.1.6 3.4.1 4.2-.5.8-1.4 3.7-3.2 2-1.8-1.8-1.5-2.5-1.6-3.3-.2-.8 0-1.8 0-3 0-1.3-1.3-8.6-.7-9.7.7-1.1.4-2.6.2-5.2a56 56 0 011.3-17.2c1.6-2.3 12.9 2.9 12.9 2.9z"/><circle cx="-580.6" cy="415.1" r="3.9" fill="#e59946"/><path fill="#e59946" d="M-578 416.6s-.2 5.8.6 6.8-7-.8-7-.8 1.8-3.7.7-6.2c-1.1-2.4 5.6.2 5.6.2z"/><path fill="#251f1e" d="M-576.6 422.7s-.3-1.3-2.3-1.6c-2-.3-4.2-.6-5 0-.6.7-1 1.5-1.4 1.5h-2.3l-3.5 6.3s1.7 2 1.3 6l-1.3 10.9a35.5 35.5 0 013.4 5.5c1.6 3.2 12.7 2.9 12-2.8 0 0-.8-1.4-.4-2.7.3-1.3 1.3-10 1.3-10l3.7-9.8s-5.2-2.6-5.5-3.3z"/><path fill="#251f1e" d="M-572.3 425.8h1.2s.6 3.7.4 6l-.1 7.5s.6 1.3.5 2.5l-.5 4.1s-.2 4.4-3.2 2.1c0 0-1-.4-.5-2.5s-.3-4.4-.3-4.4.4-1.4.3-2.4l-.8-4zM-586.8 423l-.8-.4s-1.1-.5-2.7 0c-1.6.4-2.4.3-3 .1-.7-.1-.2-1.7-.2-1.7s-1.3-2.3-2.6-1c-1.3 1.3-1.3 3.9-1.3 3.9s-.8 1.6 2 2.5c3 1 4.3 2.5 4.3 2.5h3.2z"/><path fill="#b3b3b3" d="M-580.8 419.7a.7.7 0 00-.5-.7 2.1 2.1 0 00-.5 0c-.6-.2-1.2-.4-1.5-.8-.4-.5-.3-1.3-.6-2a6.7 6.7 0 00-.5-.6 5 5 0 01-.8-2.8 1.2 1.2 0 010-.6 2.2 2.2 0 01.4-.4 1.5 1.5 0 00.4-1c0-.8 1-1.3 1.8-1.5a7.7 7.7 0 013.8-.2 3.2 3.2 0 01.7.4c.9.7 1.7 1.5 2 2.5a5.4 5.4 0 01.2 1.4 1 1 0 01-.1.5l-.5.5c-.3.3-.3.8-.3 1.3a3 3 0 01-1.5 2.2 1.8 1.8 0 00-.4.3 2 2 0 00-.3.4c-.3.7-1 1-1.8 1z"/><ellipse cx="-621" cy="431.6" fill="none" rx="2.2" ry="2.3"/><path fill="#fff" d="M-615 423.4l1.9 2-7.2 6.6-1.9-2z"/><circle cx="-620.7" cy="430.6" r="2" fill="#fff"/><path fill="#e59946" d="M-615.3 425.2a1.3 1.3 0 00-2 1.5l-2.8 2.8a1.3 1.3 0 10.6.6l2.8-2.8a1.3 1.3 0 001.4-2z"/><circle cx="-620.8" cy="431.3" r="4.8" fill="none" stroke="#3f3d56" stroke-miterlimit="10" stroke-width=".2"/><g fill="#fff"><path d="M-658.5 454.4v1.4c0 .5 0 1-.2 1.4-.1.6-.5 1.1-1 1.5 1 .7 1.1 1.8 1.2 2.9v1.8c.1.4.3.6.8.6h.6v1.4c-1.4.2-2.6-.2-2.8-1.3l-.2-1.4v-1.4c-.1-1.3-.3-1.7-1.5-1.8V458h.2c.7 0 1-.3 1.1-1l.2-1.1.1-2.2c.2-1 .9-1.6 2-1.7h1v1.5h-.5c-.9 0-1 .3-1 1zm1.7 3.4a1 1 0 00-.1 1.8c.6 0 1-.3 1-.8 0-.6-.4-1-.9-1zm3.2 0a.9.9 0 00-1 1c0 .5.5.8 1 .8.6 0 1-.3 1-1 0-.5-.4-.8-1-.8zm3.3 0a1 1 0 00-1 .9c0 .5.4 1 1 1 .4 0 .9-.4 1-1 0-.5-.5-1-1-1zm4.5 0c-.6 0-1-.2-1-.7-.2-.4-.2-.8-.2-1.1l-.1-2c-.1-1.7-1.3-2.3-3-2v1.4h.7c.3 0 .6.2.7.6v1c0 .8.1 1.6.3 2.3 0 .6.5 1 1 1.4-.9.6-1.2 1.5-1.2 2.5v2c-.1.6-.3.8-1 .8h-.5v1.5h1c1-.1 1.7-.6 1.9-1.6l.1-1.7.1-1.5c.1-.8.5-1.1 1.3-1.2h.2v-1.6h-.3z" class="st2"/></g><g fill="#f9f9f9"><path d="M-582.4 410.4s-1.3 1.1-1.6 2.7c-.3 1.6 1.1 2.8 1.1 2.8s2 1.1 1.4 2.5c0 0 .9-.7.2-2.8-.8-2-2.3-.4-1-5.2z"/><path d="M-580.2 411.5s-1.9.2-1.7 2c.2 1.7 1.9 1.3 1.3 3.1 1-1.2.3-1.2-.6-2.8-.9-1.5 1-2.3 1-2.3zM-578.5 415.3s0 1.5-.5 2a13 13 0 01-1.9 1.3s1.6-.4 2.4-1.3c.7-.8.9-2.9 0-2z"/></g><path fill="#e59946" d="M-593.8 416.5s-.7-1.4 0-1.6c.6-.2 1.5-.4 1.6 0 0 .3 0 1-.4 1l-.9.2z"/></g></svg>